<svg xmlns="http://www.w3.org/2000/svg" width="300" height="84" viewBox="0 0 147.40157 41.32913"><g fill="#00537f"><path d="M35.9 20.105a12.364 12.364 0 0 1-2.486.183c-1.7 0-3.021-.457-3.021-2.682v-4.563c0-2.224 1.322-2.682 3.021-2.682a12.356 12.356 0 0 1 2.486.183c.196.025.261.092.261.275v.835a.263.263 0 0 1-.26.263h-2.67c-.758 0-1.032.26-1.032 1.126v1.412h3.544a.262.262 0 0 1 .262.26v.943a.263.263 0 0 1-.262.263H32.2v1.685c0 .864.274 1.127 1.033 1.127H35.9a.26.26 0 0 1 .261.259v.839c0 .183-.065.249-.26.274z"/><path d="M43.775 20.184h-1.491c-.145 0-.21-.04-.353-.261l-1.492-2.303-1.413 2.303c-.144.22-.21.261-.353.261h-1.347a.141.141 0 0 1-.157-.144.209.209 0 0 1 .039-.117l2.341-3.546-2.21-3.309a.189.189 0 0 1-.026-.079.202.202 0 0 1 .209-.182h1.492c.143 0 .209.064.34.261l1.32 2.04 1.23-2.04c.144-.236.21-.26.353-.26h1.347a.14.14 0 0 1 .157.141.214.214 0 0 1-.039.12l-2.158 3.295 2.38 3.559a.179.179 0 0 1 .027.091.19.19 0 0 1-.196.17z"/><path d="M48.064 20.288a10.257 10.257 0 0 1-1.255-.09v2.313a.262.262 0 0 1-.261.263h-1.204a.262.262 0 0 1-.262-.263v-9.104c0-.195.052-.273.353-.353a11.115 11.115 0 0 1 2.63-.34c2.105 0 3.126 1.242 3.126 3.285v1.007c0 2.039-1.021 3.282-3.127 3.282zm1.4-4.29c0-1.072-.274-1.871-1.4-1.871a7.664 7.664 0 0 0-1.255.092v4.566a11.259 11.259 0 0 0 1.255.089c1.126 0 1.4-.795 1.4-1.868z"/><path d="M58.398 17.096h-4.264v.04a1.475 1.475 0 0 0 1.568 1.66c.957 0 1.86-.076 2.409-.13h.04c.13 0 .235.067.235.195v.865c0 .21-.04.3-.275.34a11.745 11.745 0 0 1-2.538.222 3.01 3.01 0 0 1-3.166-3.282v-.968c0-2.042 1.139-3.323 3.14-3.323a2.991 2.991 0 0 1 3.113 3.323v.731c0 .21-.079.327-.262.327zm-1.477-1.28c0-1.021-.562-1.61-1.373-1.61a1.412 1.412 0 0 0-1.402 1.61v.05h2.775z"/><path d="M65.92 20.184h-1.204a.275.275 0 0 1-.261-.275v-4.265c0-1.136-.105-1.465-1.113-1.465a3.332 3.332 0 0 0-1.477.471v5.259a.274.274 0 0 1-.262.275H60.4a.275.275 0 0 1-.262-.275v-6.84a.263.263 0 0 1 .262-.262h1.137a.261.261 0 0 1 .262.261v.275a3.39 3.39 0 0 1 2.12-.628c1.883 0 2.262 1.27 2.262 2.93v4.264a.274.274 0 0 1-.261.275z"/><path d="M70.274 20.288a10.908 10.908 0 0 1-2.342-.262.293.293 0 0 1-.246-.3v-.786a.215.215 0 0 1 .22-.207h.054c.629.078 1.805.14 2.197.14.81 0 .93-.272.93-.625 0-.25-.158-.405-.576-.668l-1.791-1.1a2.15 2.15 0 0 1-1.1-1.804c0-1.308.823-1.962 2.485-1.962a9.657 9.657 0 0 1 2.328.261.284.284 0 0 1 .237.302v.757c0 .158-.078.249-.21.249h-.052a18.98 18.98 0 0 0-2.158-.157c-.629 0-.904.145-.904.55 0 .21.196.34.524.536l1.715 1.047a2.1 2.1 0 0 1 1.254 1.988c0 1.138-.85 2.04-2.565 2.04z"/><path d="M80.046 17.096h-4.264v.04a1.475 1.475 0 0 0 1.57 1.66c.954 0 1.859-.076 2.405-.13h.04c.13 0 .236.067.236.195v.865c0 .21-.04.3-.276.34a11.711 11.711 0 0 1-2.535.222 3.01 3.01 0 0 1-3.166-3.282v-.968c0-2.042 1.136-3.323 3.137-3.323a2.992 2.992 0 0 1 3.116 3.323v.731c0 .21-.08.327-.263.327zm-1.477-1.28c0-1.021-.563-1.61-1.376-1.61-.81 0-1.398.575-1.398 1.61v.05h2.774z"/><path d="M92.093 20.184h-1.595c-.144 0-.196-.131-.263-.261l-1.884-3.494h-.182c-.341 0-.863-.039-1.164-.052v3.546a.252.252 0 0 1-.248.261h-1.309a.263.263 0 0 1-.263-.261v-9.001c0-.261.16-.353.42-.392a17.79 17.79 0 0 1 2.564-.169c2.015 0 3.766.719 3.766 2.955v.118a2.65 2.65 0 0 1-1.765 2.668l2.053 3.82a.169.169 0 0 1 .028.104.145.145 0 0 1-.158.158zm-1.962-6.868c0-.981-.655-1.4-1.962-1.4-.275 0-.93.026-1.164.054v2.942c.21.014.94.038 1.164.038 1.346 0 1.962-.365 1.962-1.516z"/><path d="M99.078 17.096h-4.264v.04a1.475 1.475 0 0 0 1.57 1.66c.955 0 1.86-.076 2.405-.13h.041c.13 0 .236.067.236.195v.865c0 .21-.04.3-.277.34a11.725 11.725 0 0 1-2.535.222 3.01 3.01 0 0 1-3.166-3.282v-.968c0-2.042 1.138-3.323 3.139-3.323a2.992 2.992 0 0 1 3.115 3.323v.731c0 .21-.08.327-.264.327zm-1.476-1.28c0-1.021-.564-1.61-1.376-1.61a1.412 1.412 0 0 0-1.399 1.61v.05h2.775z"/><path d="M106.312 19.948a11.116 11.116 0 0 1-2.628.34c-2.107 0-3.127-1.243-3.127-3.282v-1.007c0-2.043 1.02-3.284 3.127-3.284a9.769 9.769 0 0 1 1.255.092V10.49a.263.263 0 0 1 .261-.26h1.204a.263.263 0 0 1 .262.26v9.105c0 .195-.052.274-.354.353zm-1.373-5.73a11.082 11.082 0 0 0-1.255-.091c-1.126 0-1.4.799-1.4 1.872v1.007c0 1.073.274 1.868 1.4 1.868a7.841 7.841 0 0 0 1.255-.089z"/><path d="M114.147 20.184h-1.204a.262.262 0 0 1-.26-.261v-.302a3.367 3.367 0 0 1-2.054.654 2.232 2.232 0 0 1-1.61-.549 3.313 3.313 0 0 1-.652-2.38v-4.265a.272.272 0 0 1 .259-.274h1.206a.273.273 0 0 1 .26.274v4.265c0 .653.052 1.034.302 1.255a1.131 1.131 0 0 0 .811.235 3.708 3.708 0 0 0 1.477-.523v-5.232a.273.273 0 0 1 .261-.274h1.204a.274.274 0 0 1 .262.274v6.842a.264.264 0 0 1-.262.261z"/><path d="M120.517 20.119a7.22 7.22 0 0 1-1.687.169 2.845 2.845 0 0 1-2.982-3.179v-1.216a2.845 2.845 0 0 1 2.982-3.178 7.329 7.329 0 0 1 1.687.169c.222.053.275.132.275.34v.85c0 .132-.105.198-.236.198h-.039a11.1 11.1 0 0 0-1.687-.092c-.615 0-1.257.353-1.257 1.713v1.216c0 1.361.642 1.715 1.257 1.715a11.547 11.547 0 0 0 1.687-.09h.039c.131 0 .236.063.236.194v.851c0 .208-.053.287-.275.34z"/><path d="M125.917 20.197a5.44 5.44 0 0 1-.889.09c-1.478 0-2.08-.325-2.08-2.08v-4.106l-1.23-.183a.28.28 0 0 1-.261-.262v-.588a.262.262 0 0 1 .26-.26h1.23v-1.074a.28.28 0 0 1 .264-.262l1.216-.21h.05a.189.189 0 0 1 .21.197v1.348h1.177a.262.262 0 0 1 .263.261v.77a.263.263 0 0 1-.263.263h-1.178v4.107c0 .653.04.732.512.732h.694c.17 0 .274.067.274.196v.826c0 .13-.078.209-.25.235z"/><path d="M129.117 11.825h-1.268a.274.274 0 0 1-.277-.262v-1.151a.275.275 0 0 1 .276-.262h1.27a.262.262 0 0 1 .259.262v1.151a.261.261 0 0 1-.26.262zm-.038 8.36h-1.207a.274.274 0 0 1-.258-.276v-6.84a.26.26 0 0 1 .258-.262h1.207a.26.26 0 0 1 .258.261v6.841a.274.274 0 0 1-.258.275z"/><path d="M133.98 20.288a2.967 2.967 0 0 1-3.127-3.257v-1.059a3.128 3.128 0 1 1 6.251 0v1.06a2.965 2.965 0 0 1-3.124 3.256zm1.4-4.316c0-1.074-.486-1.766-1.4-1.766-.917 0-1.399.692-1.399 1.766v1.06c0 1.071.482 1.765 1.4 1.765.913 0 1.4-.694 1.4-1.766z"/><path d="M144.202 20.184H143a.275.275 0 0 1-.263-.275v-4.265c0-1.136-.103-1.465-1.111-1.465a3.33 3.33 0 0 0-1.477.471v5.259a.275.275 0 0 1-.262.275h-1.202a.275.275 0 0 1-.263-.275v-6.84a.262.262 0 0 1 .263-.262h1.135a.262.262 0 0 1 .263.261v.275a3.392 3.392 0 0 1 2.122-.628c1.88 0 2.26 1.27 2.26 2.93v4.264a.274.274 0 0 1-.263.275z"/><path d="M37.378 35.88h-1.386a.278.278 0 0 1-.249-.223l-.602-2.486h-3.008l-.602 2.486a.277.277 0 0 1-.248.223h-1.387a.225.225 0 0 1-.236-.223.603.603 0 0 0 .014-.064l2.145-8.202a1.681 1.681 0 0 1 1.818-1.335 1.682 1.682 0 0 1 1.818 1.335l2.145 8.202a.603.603 0 0 0 .014.064.224.224 0 0 1-.236.223zm-3.531-8.083c-.04-.157-.079-.21-.21-.21s-.17.053-.209.21l-.942 3.884h2.302z"/><path d="M44.494 35.88h-1.203a.274.274 0 0 1-.262-.274V31.34c0-1.137-.105-1.465-1.112-1.465a3.322 3.322 0 0 0-1.478.471v5.26a.274.274 0 0 1-.262.274h-1.203a.274.274 0 0 1-.262-.274v-6.842a.263.263 0 0 1 .262-.262h1.138a.263.263 0 0 1 .262.262v.274a3.393 3.393 0 0 1 2.119-.628c1.883 0 2.263 1.27 2.263 2.93v4.266a.274.274 0 0 1-.262.274z"/><path d="M51.661 35.88h-1.11a.263.263 0 0 1-.263-.263v-.208a3.553 3.553 0 0 1-1.843.576 1.998 1.998 0 0 1-2.264-2.186v-.053c0-1.489.917-2.26 3.191-2.26h.825v-.576c0-.852-.38-1.06-1.15-1.06a20.584 20.584 0 0 0-2.134.104h-.065c-.13 0-.235-.038-.235-.221v-.84c0-.143.08-.234.248-.273a11.22 11.22 0 0 1 2.185-.21c1.858 0 2.878.825 2.878 2.5v4.707a.262.262 0 0 1-.263.263zm-1.464-3.246h-.825c-1.189 0-1.45.383-1.45 1.112v.053c0 .64.287.813.94.813a2.866 2.866 0 0 0 1.335-.368z"/><path d="M55.168 35.88h-1.216a.274.274 0 0 1-.263-.274v-9.42a.262.262 0 0 1 .263-.26h1.216a.25.25 0 0 1 .247.26v9.42a.262.262 0 0 1-.247.274z"/><path d="M63.317 28.804l-2.185 7.638c-.405 1.426-.89 2.054-2.668 2.054a6.14 6.14 0 0 1-1.387-.17c-.144-.038-.274-.092-.274-.222v-.838a.242.242 0 0 1 .261-.235h.027c.365.013 1.111.08 1.478.08.562 0 .849-.159 1.032-.84l.104-.39h-.195c-.38 0-.85-.093-1.137-1.087l-1.714-5.99a.27.27 0 0 1-.013-.094c0-.13.077-.208.249-.208h1.32a.293.293 0 0 1 .25.237l1.32 5.323c.053.221.104.287.184.287h.117l1.412-5.624a.279.279 0 0 1 .262-.223h1.335a.232.232 0 0 1 .234.223.177.177 0 0 1-.012.079z"/><path d="M66.74 35.985a10.861 10.861 0 0 1-2.342-.261.297.297 0 0 1-.25-.303v-.783a.219.219 0 0 1 .223-.21h.053a25.6 25.6 0 0 0 2.197.144c.811 0 .929-.274.929-.627 0-.25-.157-.407-.576-.67l-1.793-1.096a2.158 2.158 0 0 1-1.097-1.805c0-1.31.822-1.963 2.485-1.963a9.654 9.654 0 0 1 2.327.261.284.284 0 0 1 .237.302v.759c0 .155-.078.247-.211.247h-.05a19.436 19.436 0 0 0-2.16-.157c-.627 0-.903.144-.903.551 0 .208.198.338.524.537l1.714 1.045a2.096 2.096 0 0 1 1.255 1.989c0 1.137-.85 2.04-2.563 2.04z"/><path d="M74.325 35.893a5.265 5.265 0 0 1-.89.092c-1.48 0-2.08-.328-2.08-2.08v-4.107l-1.23-.183a.282.282 0 0 1-.26-.263v-.588a.263.263 0 0 1 .26-.262h1.23V27.43a.279.279 0 0 1 .262-.26l1.215-.21h.054a.19.19 0 0 1 .209.197v1.346h1.176a.264.264 0 0 1 .263.262v.77a.265.265 0 0 1-.263.264h-1.176v4.108c0 .651.038.732.51.732h.692c.17 0 .275.065.275.196v.824c0 .13-.077.21-.247.235z"/><path d="M78.143 35.985a10.88 10.88 0 0 1-2.34-.261.297.297 0 0 1-.25-.303v-.783a.219.219 0 0 1 .223-.21h.052c.629.078 1.806.144 2.197.144.813 0 .93-.274.93-.627 0-.25-.156-.407-.576-.67l-1.792-1.096a2.158 2.158 0 0 1-1.1-1.805c0-1.31.826-1.963 2.486-1.963a9.657 9.657 0 0 1 2.329.261.284.284 0 0 1 .236.302v.759c0 .155-.078.247-.211.247h-.05a19.456 19.456 0 0 0-2.16-.157c-.626 0-.903.144-.903.551 0 .208.196.338.524.537l1.714 1.045a2.1 2.1 0 0 1 1.257 1.989c0 1.137-.853 2.04-2.566 2.04z"/></g><path fill="#3abad9" d="M24.235 7.436A4.6 4.6 0 0 0 15.45 5.52a8.789 8.789 0 0 0-3.462-.714 8.94 8.94 0 0 0-5.182 1.68l6.632 6.632.258-4.838h1.41a4.58 4.58 0 0 0 1.701 2.786c-.069 2.545-.14 5.088-.181 7.63-3.501.056-6.972.144-10.474.228V15.85l5.095-.255-6.745-6.747a9.164 9.164 0 0 0 7.486 14.287 9.13 9.13 0 0 0 8.8-11.248 4.606 4.606 0 0 0 3.446-4.45zm-3.837 3.196a3.272 3.272 0 0 1-3.54-1.433 3.288 3.288 0 1 1 3.54 1.433zm-.582-1.196a1.905 1.905 0 0 1-2.122-2.113 1.924 1.924 0 0 1 1.947-2.121c1.32 0 1.747.919 1.747 1.902a3.12 3.12 0 0 1-.025.387h-2.524c.017.675.267 1.111 1.061 1.111a3.04 3.04 0 0 0 1.108-.207l.008-.004a.09.09 0 0 1 .023-.003.073.073 0 0 1 .073.069v.704a.07.07 0 0 1-.04.058l-.01.004a3.621 3.621 0 0 1-1.246.213zm.478-2.64a.69.69 0 0 0-.653-.776c-.434 0-.718.291-.768.819h1.42z"/></svg>